<svg xmlns="http://www.w3.org/2000/svg" width="72.253" height="77.436" viewBox="0 0 72.253 77.436"><path d="M71.514 56.573l-7.969-4.323 7.115-2.725a1.473 1.473 0 00.854-1.786 1.5 1.5 0 00-1.8-.846l-9.3 3.571-6.262-3.383 7.021-2.725a1.473 1.473 0 00.854-1.786 1.5 1.5 0 00-1.8-.846l-9.3 3.571L39.257 39l9.867-5.263 9.2 3.477a1.04 1.04 0 00.474.094 1.426 1.426 0 001.328-.94 1.356 1.356 0 00-.854-1.786l-6.926-2.631 8.254-4.416 9.487 3.571a1.04 1.04 0 00.474.094 1.426 1.426 0 001.328-.94 1.356 1.356 0 00-.854-1.786l-7.305-2.631 7.779-4.229a1.392 1.392 0 00.569-1.88 1.419 1.419 0 00-1.9-.564l-7.488 4.042 1.044-6.578a1.4 1.4 0 00-2.751-.47L59.56 24.9l-8.633 4.7 1.044-6.578a1.4 1.4 0 00-2.751-.47L47.89 31.2l-10.246 5.545V26.313l7.59-5.451a1.365 1.365 0 00.285-1.973 1.4 1.4 0 00-1.992-.282l-5.882 4.229v-8.27l7.59-5.451a1.365 1.365 0 00.285-1.973 1.4 1.4 0 00-1.992-.282l-5.882 4.229V1.41A1.452 1.452 0 0036.221 0 1.54 1.54 0 0034.7 1.41v9.68l-5.879-4.23a1.482 1.482 0 00-1.992.282 1.449 1.449 0 00.285 1.973l7.59 5.451v8.27l-5.882-4.229a1.482 1.482 0 00-1.992.282 1.449 1.449 0 00.285 1.973l7.59 5.451v10.526l-9.962-5.451-1.328-8.27a1.4 1.4 0 00-2.751.47l.949 6.2-7.779-4.135v-.188l-1.423-9.586a1.338 1.338 0 00-1.611-1.125 1.328 1.328 0 00-1.138 1.6l1.233 7.612-8.728-4.7a1.419 1.419 0 00-1.9.564 1.392 1.392 0 00.569 1.88l7.495 4.041L2.447 28a1.473 1.473 0 00-.854 1.786 1.426 1.426 0 001.328.94.716.716 0 00.474-.094l8.064-3.1 9.3 4.981-7.305 2.819a1.473 1.473 0 00-.854 1.788 1.426 1.426 0 001.328.94.716.716 0 00.474-.094l9.581-3.666 9.108 4.887-9.962 5.357-8.823-3.383a1.375 1.375 0 00-1.8.846 1.356 1.356 0 00.854 1.786l6.54 2.443-7.685 4.135L3.3 46.988a1.375 1.375 0 00-1.8.846 1.356 1.356 0 00.854 1.786l6.641 2.537-8.256 4.416a1.392 1.392 0 00-.569 1.88 1.482 1.482 0 001.23.747 1.772 1.772 0 00.664-.188l8.633-4.6-1.135 6.766a1.393 1.393 0 001.138 1.6h.19a1.422 1.422 0 001.423-1.222l1.423-8.928 7.97-4.328-1.044 6.954a1.393 1.393 0 001.138 1.6h.19a1.422 1.422 0 001.423-1.222l1.423-9.022 9.864-5.261V54.6l-7.779 5.545a1.409 1.409 0 00.854 2.537 1.54 1.54 0 00.854-.282l6.071-4.417v5.357l-7.779 5.733a1.409 1.409 0 00.854 2.537 1.54 1.54 0 00.854-.282l6.071-4.417v9.116a1.423 1.423 0 002.846 0V67.1l5.882 4.229a1.54 1.54 0 00.854.282 1.357 1.357 0 001.138-.564 1.449 1.449 0 00-.285-1.973l-7.59-5.451v-5.358l5.882 4.229a1.54 1.54 0 00.854.282 1.357 1.357 0 001.138-.564 1.449 1.449 0 00-.285-1.973l-7.59-5.451V41.443l12.144 6.484 1.328 8.552a1.432 1.432 0 001.428 1.221h.19a1.328 1.328 0 001.138-1.6l-1.044-6.484 6.547 3.484 1.325 8.548a1.432 1.432 0 001.423 1.222h.19a1.328 1.328 0 001.138-1.6l-.949-6.39 7.779 4.229a1.772 1.772 0 00.664.188 1.454 1.454 0 00.664-2.725z" fill="#694395"/></svg>