<svg xmlns="http://www.w3.org/2000/svg" width="74" height="72.207" viewBox="0 0 74 72.207"><g><path d="M14.344 68.9a17.355 17.355 0 01-6.5-18.539 20.815 20.815 0 0026.177-6.947 7.05 7.05 0 01-2.741-2.388 17.392 17.392 0 01-19.35 6.257A16.982 16.982 0 01.85 25.826a17.23 17.23 0 0115.572-11.748 20.388 20.388 0 00-.184 2.7 20.754 20.754 0 0013.9 19.483 6.986 6.986 0 011.479-3.528 16.848 16.848 0 01-11.56-15.913 17.149 17.149 0 0133.095-5.973 21.022 21.022 0 00-2.633.653A20.532 20.532 0 0036.17 30.148a7.085 7.085 0 01.936-.062 7 7 0 012.468.446A17.366 17.366 0 0151.451 14.91a17.189 17.189 0 0121.7 11.165A17.5 17.5 0 0167.566 45a21.114 21.114 0 00-1.456-2.337 20.86 20.86 0 00-22.41-7.975 7.056 7.056 0 01.159 4.346 16.739 16.739 0 0119.112 6.1 17.184 17.184 0 01-3.728 23.817 16.689 16.689 0 01-19.129.473 20.677 20.677 0 001.715-2.079 20.963 20.963 0 00-.239-24.689 10.512 10.512 0 017.643 5.676 1.8 1.8 0 001.632 1.04 1.786 1.786 0 00.778-.179 1.84 1.84 0 00.85-2.439 13.732 13.732 0 00-8.759-7.329 7.028 7.028 0 01-5.825 4.654 17.377 17.377 0 01.491 20.993A17.163 17.163 0 0114.344 68.9zm16.644-16.246a1.864 1.864 0 00-.065 2.625 1.841 1.841 0 002.612.066 14.2 14.2 0 004.257-11.252q-.339.033-.686.033a6.992 6.992 0 01-3.072-.706 10.774 10.774 0 01-3.046 9.234zM18.9 37.274a1.815 1.815 0 00.747 2.477 13.57 13.57 0 006.466 1.63 15.481 15.481 0 004.877-.817 6.989 6.989 0 01-.909-3.457v-.1a10.594 10.594 0 01-8.672-.47 1.866 1.866 0 00-2.51.736zm24.331-3.592a10.282 10.282 0 016.953-4.282 1.866 1.866 0 00-.486-3.7 13.752 13.752 0 00-9.098 5.318 7.056 7.056 0 012.636 2.663zM29.618 21.675a13.385 13.385 0 002.5 10.494 7.014 7.014 0 013.172-1.845 10.016 10.016 0 01-2.062-7.994 1.807 1.807 0 00-1.472-2.1 1.859 1.859 0 00-.339-.031 1.828 1.828 0 00-1.799 1.476z" fill="#e36697"/></g></svg>