<svg xmlns="http://www.w3.org/2000/svg" width="73.937" height="64.083" viewBox="0 0 73.937 64.083"><path d="M23.648 63.915l-9.757-10.3a.576.576 0 01.382-.975h19.516a.575.575 0 01.382.975l-9.757 10.3a.521.521 0 01-.765 0zm26.557.112l-2.083-1.912a.186.186 0 01.145-.321h4.165a.186.186 0 01.145.321L50.5 64.027a.216.216 0 01-.146.055.214.214 0 01-.148-.055zm3.051-2.289l-2.083-1.912a.187.187 0 01.145-.321h4.166a.187.187 0 01.145.321l-2.083 1.912a.214.214 0 01-.145.055.216.216 0 01-.144-.055zm-5.34 0l-2.083-1.912a.187.187 0 01.145-.321h4.167a.187.187 0 01.145.321l-2.084 1.912a.217.217 0 01-.29 0zm8.392-3.051l-2.083-1.913a.187.187 0 01.145-.321h4.167a.187.187 0 01.145.321L56.6 58.687a.217.217 0 01-.29 0zm-6.1 0l-2.083-1.913a.187.187 0 01.145-.321h4.167a.187.187 0 01.145.321L50.5 58.687a.212.212 0 01-.145.055.214.214 0 01-.149-.055zm-5.341 0l-2.083-1.913a.187.187 0 01.145-.321h4.166a.187.187 0 01.145.321l-2.083 1.913a.219.219 0 01-.291 0zM58.6 55.635l-2.083-1.912a.187.187 0 01.145-.321h4.165a.187.187 0 01.146.321l-2.083 1.912a.216.216 0 01-.146.055.214.214 0 01-.144-.055zm-5.341 0l-2.083-1.912a.187.187 0 01.145-.321h4.166a.187.187 0 01.145.321l-2.083 1.912a.214.214 0 01-.145.055.216.216 0 01-.147-.055zm-5.34 0l-2.083-1.912a.187.187 0 01.145-.321h4.167a.187.187 0 01.145.321l-2.084 1.912a.217.217 0 01-.29 0zm-6.1 0l-2.089-1.911a.187.187 0 01.145-.321h4.167a.187.187 0 01.145.321L42.1 55.635a.217.217 0 01-.29 0zm-5.2-4.689l-9.758-10.3a.575.575 0 01.382-.975h19.514a.576.576 0 01.383.975l-9.758 10.3a.52.52 0 01-.764 0zm-26.083.112l-2.083-1.912a.187.187 0 01.145-.321h4.166a.187.187 0 01.145.321l-2.083 1.912a.216.216 0 01-.146.055.214.214 0 01-.145-.055zm52.994-.878l-9.508-9.843a.548.548 0 01.373-.931h19.014a.548.548 0 01.373.931l-9.508 9.843a.514.514 0 01-.745 0zm-49.944-2.173L11.5 46.094a.187.187 0 01.145-.321h4.166a.186.186 0 01.145.321l-2.083 1.912a.214.214 0 01-.145.055.216.216 0 01-.142-.054zm-6.1 0L5.4 46.094a.187.187 0 01.145-.321h4.167a.186.186 0 01.145.321l-2.083 1.913a.214.214 0 01-.145.055.212.212 0 01-.145-.055zm8.392-2.289l-2.083-1.912a.187.187 0 01.145-.321h4.16a.187.187 0 01.145.321l-2.083 1.912a.214.214 0 01-.145.055.212.212 0 01-.141-.055zm-5.341 0l-2.084-1.912a.187.187 0 01.145-.321h4.166a.187.187 0 01.145.321l-2.083 1.912a.216.216 0 01-.146.055.214.214 0 01-.145-.055zm-5.341 0l-2.084-1.912a.187.187 0 01.145-.321h4.166a.187.187 0 01.145.321l-2.082 1.912a.219.219 0 01-.291 0zm13.732-3.052l-2.083-1.912a.187.187 0 01.145-.321h4.166a.187.187 0 01.145.321l-2.083 1.912a.216.216 0 01-.146.055.214.214 0 01-.145-.055zm-5.341 0L11.5 40.755a.187.187 0 01.145-.321h4.166a.186.186 0 01.145.321l-2.083 1.912a.214.214 0 01-.145.055.216.216 0 01-.142-.056zm-6.1 0L5.4 40.755a.187.187 0 01.145-.321h4.167a.186.186 0 01.145.321l-2.083 1.911a.214.214 0 01-.145.055.212.212 0 01-.145-.055zm-5.407-.152L.059 40.5a.2.2 0 01.14-.338h4.036a.2.2 0 01.14.338l-2.017 2.014a.2.2 0 01-.281 0zm47.509-5.3l-9.757-10.3a.576.576 0 01.382-.975h19.513a.575.575 0 01.382.975l-9.757 10.3a.521.521 0 01-.765 0zm-25.938 0l-9.757-10.3a.576.576 0 01.382-.975h19.513a.575.575 0 01.382.975l-9.757 10.3a.521.521 0 01-.765 0zM10.679 24.245L.923 13.944a.575.575 0 01.382-.975h19.514a.576.576 0 01.382.975l-9.757 10.3a.521.521 0 01-.765 0zm26.557.112l-2.084-1.912a.187.187 0 01.145-.321h4.167a.187.187 0 01.145.321l-2.083 1.912a.217.217 0 01-.29 0zm26.293-.374l-9.508-9.843a.548.548 0 01.373-.931h19.015a.548.548 0 01.373.931l-9.508 9.843a.514.514 0 01-.745 0zm-24-2.677l-2.083-1.912a.187.187 0 01.145-.322h4.166a.187.187 0 01.146.322l-2.083 1.912a.214.214 0 01-.145.055.212.212 0 01-.15-.055zm-5.341 0L32.1 19.394a.187.187 0 01.145-.322h4.166a.187.187 0 01.145.322l-2.083 1.912a.216.216 0 01-.146.055.214.214 0 01-.142-.055zm8.392-3.052l-2.083-1.912a.187.187 0 01.145-.321H44.8a.187.187 0 01.145.321l-2.083 1.912a.219.219 0 01-.291 0zm-5.34 0l-2.084-1.912a.187.187 0 01.145-.321h4.167a.187.187 0 01.145.321l-2.083 1.912a.217.217 0 01-.29 0zm-6.1 0l-2.09-1.912a.187.187 0 01.145-.321h4.166a.186.186 0 01.145.321l-2.083 1.912a.217.217 0 01-.29 0zm13.731-2.289l-2.083-1.912a.187.187 0 01.145-.321h4.166a.187.187 0 01.145.321l-2.083 1.912a.219.219 0 01-.291 0zm-5.34 0l-2.083-1.912a.187.187 0 01.145-.321h4.166a.187.187 0 01.146.321l-2.083 1.912a.214.214 0 01-.145.055.212.212 0 01-.152-.055zm-5.341 0l-2.09-1.911a.187.187 0 01.145-.321h4.166a.187.187 0 01.145.321l-2.083 1.912a.216.216 0 01-.146.055.214.214 0 01-.142-.056zm-5.34 0l-2.083-1.912a.187.187 0 01.145-.321h4.167a.187.187 0 01.145.321l-2.083 1.912a.217.217 0 01-.29 0zm20.741-4.689L39.83.975A.576.576 0 0140.212 0h19.515a.575.575 0 01.382.975l-9.757 10.3a.521.521 0 01-.765 0zm-25.938 0L13.892.975A.576.576 0 0114.274 0h19.515a.575.575 0 01.382.975l-9.757 10.3a.521.521 0 01-.765 0z" fill="#1f8eb8"/></svg>