<svg xmlns="http://www.w3.org/2000/svg" width="73.391" height="73.129" viewBox="0 0 73.391 73.129"><g><path d="M22.113 15.845l7.052 2.355 7.4-18.2 7.487 18.2 7.048-2.355-5.742 16.541 11.056-9.315.522 6.268 16.454-.087-11.578 11.666 5.746 4.182-14.539 4.959 5.136 15.148a.7.7 0 01-.958.871l-20.371-7.923-20.372 7.923a.729.729 0 01-.958-.871l5.224-15.148L5.92 45.1l5.746-4.179L0 29.252l16.454.087.435-6.268 10.969 9.751z" fill="#cb361e"/><path d="M34.997 73.129l-.609-1.567 1.393-.522c.174-.087.261-.522.261-1.132l-.087-11.753h1.654v11.753c0 1.045-.174 2.264-1.306 2.7z" fill="#cb361e"/><path d="M54.24 38.481l-.609-1.654-16.109 6.355-.082-23.332h-1.746l.087 23.245-15.841-6.53-.7 1.567 15.845 6.618-10.012 9.4 1.219 1.306 9.576-9.054v12.1l.871-.261.871.261v-12.36l9.925 9.315 1.219-1.219-10.274-9.576z" fill="#fff"/></g></svg>